<svg width="473" height="219" xmlns="http://www.w3.org/2000/svg" xmlns:xlink="http://www.w3.org/1999/xlink" xml:space="preserve" overflow="hidden"><defs><clipPath id="clip0"><rect x="0" y="0" width="473" height="219"/></clipPath></defs><g clip-path="url(#clip0)"><path d="M0 0 622.326 0 622.326 350.058 0 350.058Z" fill="#FFFFFF" transform="matrix(1.00177 0 0 1 -74.2501 -67.4352)"/><path d="M353.948 174.835C353.923 173.617 353.351 172.474 352.392 171.723 350.253 169.973 347.53 168.806 344.807 168.028 342.727 167.391 340.565 167.064 338.39 167.056 336.217 167.093 334.059 167.42 331.972 168.028 329.253 168.821 326.688 170.071 324.387 171.723 323.428 172.474 322.857 173.617 322.832 174.835L322.832 182.614 353.948 182.614Z" transform="matrix(1.00177 0 0 1 -74.2501 -67.4352)"/><path d="M346.709 162.972C346.261 161.221 347.973 156.846 347.987 153.763 347.987 151.298 347.287 150.194 345.965 149.446 345.201 149.013 343.441 149.412 343.441 149.412 343.441 149.412 342.532 147.69 339.489 146.743 336.988 146.061 334.319 146.403 332.069 147.69 330.187 148.906 329.279 150.243 329.235 154.842 329.196 159.058 329.774 162.801 329.507 164.566 329.384 165.543 329.012 166.472 328.428 167.265 328.428 167.265 331.345 167.639 332.974 166.779 333.793 166.229 334.57 165.617 335.298 164.95 332.802 163.786 330.983 161.537 330.368 158.854 330.305 158.62 329.881 157.094 330.557 156.238 330.926 155.752 331.772 155.615 333.182 155.368 334.87 155.145 336.518 154.682 338.074 153.992 339.823 153.112 341.445 152 342.897 150.686 343.088 150.497 343.396 150.499 343.584 150.691 343.656 150.764 343.703 150.857 343.718 150.958 343.834 151.758 344.112 152.525 344.535 153.214 344.734 153.468 344.977 153.682 345.255 153.846 345.578 154.039 345.856 154.299 346.072 154.609 346.423 155.294 346.622 156.047 346.655 156.816 346.623 160.364 344.515 163.564 341.268 164.994 341.881 165.534 342.683 166.2 343.567 166.842 345.026 167.897 348.551 166.438 348.551 166.438 348.551 166.438 347.413 165.758 346.709 162.972Z" transform="matrix(1.00177 0 0 1 -74.2501 -67.4352)"/><path d="M345.683 156.846C345.657 156.258 345.515 155.681 345.264 155.149 345.122 154.947 344.936 154.781 344.72 154.663 344.348 154.439 344.019 154.151 343.748 153.812 343.356 153.249 343.074 152.617 342.916 151.95 341.559 153.089 340.074 154.068 338.492 154.867 336.849 155.597 335.11 156.089 333.328 156.326 332.507 156.471 331.481 156.651 331.306 156.836 331.014 157.215 331.165 158.183 331.306 158.591 332.137 162.096 335.113 164.625 338.39 164.625 342.279 164.625 345.683 160.988 345.683 156.846Z" transform="matrix(1.00177 0 0 1 -74.2501 -67.4352)"/><path d="M128.744 107.935C128.718 106.716 128.147 105.574 127.188 104.823 125.049 103.073 122.326 101.906 119.603 101.128 117.523 100.491 115.361 100.164 113.186 100.156 111.012 100.193 108.855 100.52 106.768 101.128 104.049 101.921 101.484 103.171 99.1832 104.823 98.224 105.574 97.6527 106.716 97.6274 107.935L97.6274 115.714 128.744 115.714Z" transform="matrix(1.00177 0 0 1 -74.2501 -67.4352)"/><path d="M111.727 88.3656C112.991 87.6215 116.103 85.2198 116.103 85.2198L116.103 85.2198C116.594 85.2622 117.061 85.45 117.445 85.7596 118.378 86.415 119.169 87.2536 119.769 88.2244 120.308 89.0315 120.77 89.683 120.911 89.8775L120.911 89.8775 120.965 89.9455 120.965 89.9455C121.208 89.4594 121.198 88.1027 121.028 86.8678 120.79 85.1661 120.595 84.6608 119.506 83.7464 118.812 83.1179 117.886 82.809 116.954 82.8958 115.688 81.914 114.164 81.3228 112.568 81.1941 110.137 81.1066 107.482 82.3757 106.355 83.8635 104.648 86.1 104.838 87.5585 104.838 88.0786 104.838 88.599 104.24 89.5033 104.658 89.5033 104.93 89.5033 105.197 89.5033 105.47 89.5033L105.47 89.5033C107.011 89.4594 110.156 89.289 111.727 88.3656Z" transform="matrix(1.00177 0 0 1 -74.2501 -67.4352)"/><path d="M120.196 90.5142C120.172 90.4804 119.637 89.7363 118.986 88.769 118.451 87.8915 117.741 87.1334 116.9 86.5422 116.736 86.4232 116.559 86.3252 116.37 86.2505 115.504 86.907 113.278 88.5795 112.218 89.1968 110.536 90.1692 107.468 90.4271 105.412 90.4706 105.465 94.7666 108.99 98.2058 113.286 98.1525 117.123 98.105 120.352 95.2664 120.891 91.4675Z" transform="matrix(1.00177 0 0 1 -74.2501 -67.4352)"/><path d="M128.744 176.391C128.718 175.172 128.147 174.03 127.188 173.279 125.049 171.529 122.326 170.362 119.603 169.584 117.523 168.947 115.361 168.62 113.186 168.611 111.012 168.649 108.855 168.976 106.768 169.584 104.049 170.377 101.484 171.627 99.1832 173.279 98.224 174.03 97.6527 175.172 97.6274 176.391L97.6274 184.17 128.744 184.17Z" transform="matrix(1.00177 0 0 1 -74.2501 -67.4352)"/><path d="M111.727 156.821C112.991 156.077 116.103 153.676 116.103 153.676L116.103 153.676C116.594 153.718 117.061 153.906 117.445 154.215 118.378 154.871 119.169 155.709 119.769 156.68 120.308 157.487 120.77 158.139 120.911 158.333L120.911 158.333 120.965 158.401 120.965 158.401C121.208 157.915 121.198 156.559 121.028 155.324 120.79 153.622 120.595 153.117 119.506 152.202 118.812 151.574 117.886 151.265 116.954 151.352 115.688 150.37 114.164 149.779 112.568 149.65 110.137 149.562 107.482 150.832 106.355 152.319 104.648 154.555 104.838 156.014 104.838 156.534 104.838 157.055 104.24 157.959 104.658 157.959 104.93 157.959 105.197 157.959 105.47 157.959L105.47 157.959C107.011 157.915 110.156 157.745 111.727 156.821Z" transform="matrix(1.00177 0 0 1 -74.2501 -67.4352)"/><path d="M120.196 158.97C120.172 158.936 119.637 158.192 118.986 157.225 118.451 156.347 117.741 155.589 116.9 154.998 116.736 154.879 116.559 154.781 116.37 154.706 115.504 155.363 113.278 157.035 112.218 157.653 110.536 158.625 107.468 158.883 105.412 158.926 105.465 163.222 108.99 166.662 113.286 166.608 117.123 166.561 120.352 163.722 120.891 159.923Z" transform="matrix(1.00177 0 0 1 -74.2501 -67.4352)"/><path d="M128.744 247.958C128.718 246.74 128.147 245.597 127.188 244.846 125.049 243.096 122.326 241.929 119.603 241.151 117.523 240.515 115.361 240.187 113.186 240.179 111.012 240.216 108.855 240.543 106.768 241.151 104.049 241.945 101.484 243.194 99.1832 244.846 98.224 245.597 97.6527 246.74 97.6274 247.958L97.6274 255.737 128.744 255.737Z" transform="matrix(1.00177 0 0 1 -74.2501 -67.4352)"/><path d="M121.504 236.095C121.057 234.345 122.769 229.969 122.783 226.886 122.783 224.421 122.083 223.318 120.76 222.569 119.997 222.136 118.237 222.535 118.237 222.535 118.237 222.535 117.328 220.814 114.284 219.866 111.783 219.185 109.114 219.526 106.865 220.814 104.984 222.03 104.074 223.366 104.03 227.966 103.991 232.181 104.57 235.925 104.303 237.69 104.179 238.667 103.808 239.595 103.224 240.388 103.224 240.388 106.141 240.762 107.769 239.902 108.589 239.352 109.366 238.741 110.093 238.074 107.598 236.91 105.779 234.66 105.163 231.977 105.1 231.743 104.677 230.217 105.353 229.361 105.722 228.875 106.568 228.739 107.978 228.491 109.666 228.268 111.313 227.805 112.87 227.115 114.619 226.235 116.241 225.123 117.692 223.809 117.884 223.62 118.192 223.623 118.38 223.814 118.452 223.887 118.499 223.98 118.514 224.081 118.63 224.881 118.908 225.648 119.331 226.337 119.529 226.591 119.773 226.806 120.051 226.969 120.374 227.163 120.652 227.423 120.867 227.732 121.219 228.418 121.417 229.17 121.451 229.94 121.419 233.488 119.311 236.688 116.064 238.117 116.676 238.657 117.479 239.323 118.363 239.965 119.822 241.02 123.347 239.561 123.347 239.561 123.347 239.561 122.209 238.881 121.504 236.095Z" transform="matrix(1.00177 0 0 1 -74.2501 -67.4352)"/><path d="M120.478 229.969C120.452 229.381 120.31 228.804 120.06 228.272 119.918 228.071 119.732 227.905 119.516 227.786 119.144 227.562 118.815 227.274 118.543 226.935 118.152 226.372 117.87 225.74 117.712 225.073 116.355 226.213 114.87 227.191 113.288 227.99 111.645 228.721 109.906 229.212 108.124 229.448 107.303 229.594 106.277 229.774 106.102 229.959 105.81 230.338 105.961 231.306 106.102 231.714 106.933 235.22 109.909 237.748 113.186 237.748 117.075 237.748 120.478 234.111 120.478 229.969Z" transform="matrix(1.00177 0 0 1 -74.2501 -67.4352)"/><path d="M170.167 88.8759 160.443 88.8759 160.443 83.0416 170.167 83.0416 170.167 88.8759ZM170.167 96.655 160.443 96.655 160.443 90.8207 170.167 90.8207 170.167 96.655ZM170.167 104.434 160.443 104.434 160.443 98.5998 170.167 98.5998 170.167 104.434ZM148.775 104.434 148.775 98.5998 158.499 98.5998 158.499 104.434 148.775 104.434ZM137.106 104.434 137.106 98.5998 146.83 98.5998 146.83 104.434 137.106 104.434ZM137.106 90.8207 146.83 90.8207 146.83 96.655 137.106 96.655 137.106 90.8207ZM137.106 83.0416 146.83 83.0416 146.83 88.8759 137.106 88.8759 137.106 83.0416ZM158.499 90.8207 158.499 96.655 148.775 96.655 148.775 90.8207 158.499 90.8207ZM158.499 83.0416 158.499 88.8759 148.775 88.8759 148.775 83.0416 158.499 83.0416ZM134.189 80.1245 134.189 107.351 173.084 107.351 173.084 80.1245 134.189 80.1245Z" transform="matrix(1.00177 0 0 1 -74.2501 -67.4352)"/><path d="M170.167 161.221 160.443 161.221 160.443 155.387 170.167 155.387 170.167 161.221ZM170.167 169 160.443 169 160.443 163.166 170.167 163.166 170.167 169ZM170.167 176.779 160.443 176.779 160.443 170.945 170.167 170.945 170.167 176.779ZM148.775 176.779 148.775 170.945 158.499 170.945 158.499 176.779 148.775 176.779ZM137.106 176.779 137.106 170.945 146.83 170.945 146.83 176.779 137.106 176.779ZM137.106 163.166 146.83 163.166 146.83 169 137.106 169 137.106 163.166ZM137.106 155.387 146.83 155.387 146.83 161.221 137.106 161.221 137.106 155.387ZM158.499 163.166 158.499 169 148.775 169 148.775 163.166 158.499 163.166ZM158.499 155.387 158.499 161.221 148.775 161.221 148.775 155.387 158.499 155.387ZM134.189 152.47 134.189 179.697 173.084 179.697 173.084 152.47 134.189 152.47Z" transform="matrix(1.00177 0 0 1 -74.2501 -67.4352)"/><path d="M170.167 234.345 160.443 234.345 160.443 228.51 170.167 228.51 170.167 234.345ZM170.167 242.124 160.443 242.124 160.443 236.289 170.167 236.289 170.167 242.124ZM170.167 249.903 160.443 249.903 160.443 244.068 170.167 244.068 170.167 249.903ZM148.775 249.903 148.775 244.068 158.499 244.068 158.499 249.903 148.775 249.903ZM137.106 249.903 137.106 244.068 146.83 244.068 146.83 249.903 137.106 249.903ZM137.106 236.289 146.83 236.289 146.83 242.124 137.106 242.124 137.106 236.289ZM137.106 228.51 146.83 228.51 146.83 234.345 137.106 234.345 137.106 228.51ZM158.499 236.289 158.499 242.124 148.775 242.124 148.775 236.289 158.499 236.289ZM158.499 228.51 158.499 234.345 148.775 234.345 148.775 228.51 158.499 228.51ZM134.189 225.593 134.189 252.82 173.084 252.82 173.084 225.593 134.189 225.593Z" transform="matrix(1.00177 0 0 1 -74.2501 -67.4352)"/><path d="M465.189 142.552 466.161 142.552 466.161 175.613 433.116 175.613 433.116 174.64 465.189 174.64 465.189 142.552Z" transform="matrix(1.00177 0 0 1 -74.2501 -67.4352)"/><path d="M462.271 171.731 462.271 152.765 456.437 152.765 456.437 171.731ZM461.299 170.758 457.41 170.758 457.41 153.737 461.299 153.737Z" transform="matrix(1.00177 0 0 1 -74.2501 -67.4352)"/><path d="M454.492 171.731 454.492 142.552 448.658 142.552 448.658 171.731ZM453.52 170.758 449.63 170.758 449.63 143.524 453.52 143.524Z" transform="matrix(1.00177 0 0 1 -74.2501 -67.4352)"/><path d="M446.713 171.731 446.713 152.765 440.879 152.765 440.879 171.731ZM445.741 170.758 441.851 170.758 441.851 153.737 445.741 153.737Z" transform="matrix(1.00177 0 0 1 -74.2501 -67.4352)"/><path d="M438.934 161.032 433.1 161.032 433.1 171.731 438.934 171.731ZM437.962 170.758 434.072 170.758 434.072 162.005 437.962 162.005Z" transform="matrix(1.00177 0 0 1 -74.2501 -67.4352)"/><path d="M305.329 151.497C305.329 153.646 299.234 155.387 291.715 155.387 284.197 155.387 278.102 153.646 278.102 151.497 278.102 149.349 284.197 147.608 291.715 147.608 299.234 147.608 305.329 149.349 305.329 151.497Z" transform="matrix(1.00177 0 0 1 -74.2501 -67.4352)"/><path d="M301.439 161.221C300.856 161.221 300.467 160.832 300.467 160.249 300.467 159.665 300.856 159.277 301.439 159.277 302.023 159.277 302.411 159.665 302.411 160.249 302.411 160.832 302.023 161.221 301.439 161.221ZM291.715 157.332C284.228 157.332 278.102 155.581 278.102 153.442L278.102 161.221C278.102 163.361 284.228 165.111 291.715 165.111 299.203 165.111 305.329 163.361 305.329 161.221L305.329 153.442C305.329 155.581 299.203 157.332 291.715 157.332Z" transform="matrix(1.00177 0 0 1 -74.2501 -67.4352)"/><path d="M301.439 170.945C300.856 170.945 300.467 170.556 300.467 169.973 300.467 169.389 300.856 169 301.439 169 302.023 169 302.411 169.389 302.411 169.973 302.411 170.556 302.023 170.945 301.439 170.945ZM291.715 167.056C284.228 167.056 278.102 165.305 278.102 163.166L278.102 170.945C278.102 173.084 284.228 174.835 291.715 174.835 299.203 174.835 305.329 173.084 305.329 170.945L305.329 163.166C305.329 165.305 299.203 167.056 291.715 167.056Z" transform="matrix(1.00177 0 0 1 -74.2501 -67.4352)"/><path d="M301.439 180.669C300.856 180.669 300.467 180.28 300.467 179.697 300.467 179.113 300.856 178.724 301.439 178.724 302.023 178.724 302.411 179.113 302.411 179.697 302.411 180.28 302.023 180.669 301.439 180.669ZM291.715 176.779C284.228 176.779 278.102 175.029 278.102 172.89L278.102 180.669C278.102 182.808 284.228 184.559 291.715 184.559 299.203 184.559 305.329 182.808 305.329 180.669L305.329 172.89C305.329 175.029 299.203 176.779 291.715 176.779Z" transform="matrix(1.00177 0 0 1 -74.2501 -67.4352)"/><path d="M497.472 189.032C497.472 187.152 495.951 185.627 494.072 185.625 492.19 185.624 490.665 187.146 490.665 189.026 490.665 190.178 491.245 191.252 492.209 191.881L489.693 199.242 489.693 199.242C488.996 199.241 488.32 199.453 487.748 199.849L482.672 196.042C483.322 194.279 482.423 192.322 480.657 191.671 478.895 191.02 476.939 191.922 476.285 193.685 475.745 195.157 476.278 196.809 477.577 197.686L474.333 207.993 474.135 207.993C472.256 207.989 470.727 209.509 470.723 211.388 470.72 213.268 472.24 214.795 474.119 214.8 475.998 214.804 477.526 213.284 477.53 211.405 477.534 210.327 477.025 209.313 476.161 208.669L479.432 198.269 479.483 198.269C480.21 198.268 480.922 198.033 481.505 197.598L486.538 201.366C486.375 201.773 486.293 202.207 486.289 202.645 486.289 204.525 487.81 206.049 489.693 206.049 491.571 206.05 493.096 204.527 493.096 202.648 493.096 201.5 492.52 200.43 491.56 199.801L494.068 192.435C495.947 192.435 497.472 190.911 497.472 189.032Z" transform="matrix(1.00177 0 0 1 -74.2501 -67.4352)"/><path d="M468.3 185.628 465.383 185.628 465.383 219.662 498.93 219.662 498.93 216.744 468.3 216.744 468.3 185.628Z" transform="matrix(1.00177 0 0 1 -74.2501 -67.4352)"/><path d="M510.311 155.679 514.279 159.646C515.251 158.541 515.838 157.147 515.947 155.679Z" transform="matrix(1.00177 0 0 1 -74.2501 -67.4352)"/><path d="M508.654 155.392 508.654 148.41C504.905 148.668 502.073 151.917 502.33 155.668 502.587 159.418 505.838 162.249 509.588 161.991 511.07 161.89 512.474 161.307 513.594 160.331Z" transform="matrix(1.00177 0 0 1 -74.2501 -67.4352)"/><path d="M509.627 154.706 515.947 154.706C515.702 151.327 513.007 148.643 509.627 148.41Z" transform="matrix(1.00177 0 0 1 -74.2501 -67.4352)"/><path d="M522.754 146.441 522.754 163.944 495.527 163.944 495.527 146.441ZM526.643 164.916 525.671 164.916 525.671 144.982 526.643 144.982C527.18 144.982 527.616 144.547 527.616 144.01 527.616 143.473 527.18 143.038 526.643 143.038L510.113 143.038 510.113 142.065C510.113 141.528 509.677 141.093 509.14 141.093 508.604 141.093 508.168 141.528 508.168 142.065L508.168 143.038 491.637 143.038C491.101 143.038 490.665 143.473 490.665 144.01 490.665 144.547 491.101 144.982 491.637 144.982L492.61 144.982 492.61 164.916 491.637 164.916C491.101 164.916 490.665 165.352 490.665 165.889 490.665 166.426 491.101 166.861 491.637 166.861L506.488 166.861 499 174.348C498.619 174.732 498.623 175.352 499.004 175.732 499.389 176.112 500.008 176.109 500.389 175.725L508.168 167.946 508.168 176.585C508.168 177.122 508.604 177.557 509.14 177.557 509.677 177.557 510.113 177.122 510.113 176.585L510.113 167.931 517.892 175.71C518.273 176.09 518.888 176.09 519.269 175.71 519.646 175.33 519.646 174.714 519.269 174.334L511.793 166.861 526.643 166.861C527.18 166.861 527.616 166.426 527.616 165.889 527.616 165.352 527.18 164.916 526.643 164.916Z" transform="matrix(1.00177 0 0 1 -74.2501 -67.4352)"/><text font-family="Aptos,Aptos_MSFontService,sans-serif" font-weight="700" font-size="26.65" transform="matrix(0.389642 0 0 0.388954 47.9368 64)">Site A</text><text font-family="Aptos,Aptos_MSFontService,sans-serif" font-weight="700" font-size="26.65" transform="matrix(0.389642 0 0 0.388954 47.1646 132)">Site B</text><text font-family="Aptos,Aptos_MSFontService,sans-serif" font-weight="700" font-size="26.65" transform="matrix(0.389642 0 0 0.388954 47.9368 207)">Site C</text><text font-family="Aptos,Aptos_MSFontService,sans-serif" font-weight="700" font-size="26.65" transform="matrix(0.389642 0 0 0.388954 219.328 135)">Head Office</text><path d="M176.974 92.2793 224.057 92.2793 224.057 166.206 222.598 164.747 260.93 164.747 260.93 167.664 221.14 167.664 221.14 93.7378 222.598 95.1964 176.974 95.1964ZM259.471 161.83 268.223 166.206 259.471 170.581Z" transform="matrix(1.00177 0 0 1 -74.2501 -67.4352)"/><path d="M0-1.45858 47.0828-1.45858 47.0828 73.2116 45.6243 71.753 83.956 71.753 83.956 74.6702 44.1657 74.6702 44.1657 0 45.6243 1.45858 0 1.45858ZM82.4975 68.8359 91.2489 73.2116 82.4975 77.5873Z" transform="matrix(1.00177 0 0 -1 103.037 171.86)"/><path d="M176.974 164.625 260.93 164.625 260.93 167.542 176.974 167.542ZM259.471 161.708 268.223 166.083 259.471 170.459Z" transform="matrix(1.00177 0 0 1 -74.2501 -67.4352)"/><path d="M361.338 164.625 414.294 164.625 414.294 167.542 361.338 167.542ZM412.835 161.708 421.587 166.083 412.835 170.459Z" transform="matrix(1.00177 0 0 1 -74.2501 -67.4352)"/></g></svg>